<svg xmlns="http://www.w3.org/2000/svg" xmlns:svg="http://www.w3.org/2000/svg" id="svg844" width="115.723" height="115.723" x="0" y="0" version="1.1" viewBox="0 0 115.723 115.723" xml:space="preserve"><metadata id="metadata850"/><g id="g871" transform="translate(7.6292801,8.6168633)"><circle id="path860" cx="50.232" cy="49.245" r="57.861" style="fill:#1d7ed2;fill-opacity:1;fill-rule:evenodd;stroke:none;stroke-width:1.70000005;stroke-linecap:square;stroke-linejoin:round;stroke-miterlimit:4;stroke-dasharray:none;stroke-dashoffset:0;stroke-opacity:1"/><switch style="stroke:none" id="switch838" transform="translate(2.2678339,-0.3111508)"><g style="stroke:none" id="g836"><path style="stroke:none" id="path834" d="M 14.8,14.8 V 85.1 H 85.1 V 14.8 Z m 36.8,1.4 h 7.7 V 23 c 0,2.1 -1.7,3.9 -3.9,3.9 -2.2,0 -3.9,-1.7 -3.9,-3.9 v -6.8 z m 15.3,14.4 c 1.4,0 2.5,1.1 2.5,2.5 v 30.5 c 0,1.1 -0.4,2.1 -1.2,2.8 l -1.8,1.8 c -0.7,0.7 -1.8,1.2 -2.8,1.2 H 33.1 c -1.4,0 -2.5,-1.1 -2.5,-2.5 V 33.1 c 0,-1.4 1.1,-2.5 2.5,-2.5 z M 40.6,16.2 h 7.7 V 23 c 0,2.1 -1.7,3.9 -3.9,3.9 -2.2,0 -3.9,-1.7 -3.9,-3.9 v -6.8 z m -11,0 h 7.7 V 23 c 0,2.1 -1.7,3.9 -3.9,3.9 -2.2,0 -3.9,-1.7 -3.9,-3.9 V 16.2 Z M 23,70.4 H 16.2 V 62.7 H 23 c 2.1,0 3.9,1.7 3.9,3.9 0,2.2 -1.8,3.8 -3.9,3.8 z m 0,-11 H 16.2 V 51.7 H 23 c 2.1,0 3.9,1.7 3.9,3.9 0,2.2 -1.8,3.8 -3.9,3.8 z m 0,-11 H 16.2 V 40.7 H 23 c 2.1,0 3.9,1.7 3.9,3.9 0,2.2 -1.8,3.8 -3.9,3.8 z m 0,-11 H 16.2 V 29.7 H 23 c 2.1,0 3.9,1.7 3.9,3.9 0,2.2 -1.8,3.8 -3.9,3.8 z M 37.4,83.8 H 29.7 V 77 c 0,-2.1 1.7,-3.9 3.9,-3.9 2.2,0 3.9,1.7 3.9,3.9 v 6.8 z m 11,0 H 40.7 V 77 c 0,-2.1 1.7,-3.9 3.9,-3.9 2.2,0 3.9,1.7 3.9,3.9 v 6.8 z m 11,0 H 51.7 V 77 c 0,-2.1 1.7,-3.9 3.9,-3.9 2.2,0 3.9,1.7 3.9,3.9 v 6.8 z m 11,0 H 62.7 V 77 c 0,-2.1 1.7,-3.9 3.9,-3.9 2.2,0 3.9,1.7 3.9,3.9 v 6.8 z m 0,-60.8 c 0,2.1 -1.7,3.9 -3.9,3.9 -2.2,0 -3.9,-1.7 -3.9,-3.9 v -6.8 h 7.7 V 23 Z M 83.8,70.4 H 77 c -2.1,0 -3.9,-1.7 -3.9,-3.9 0,-2.2 1.7,-3.9 3.9,-3.9 h 6.8 z m 0,-11 H 77 c -2.1,0 -3.9,-1.7 -3.9,-3.9 0,-2.2 1.7,-3.9 3.9,-3.9 h 6.8 z m 0,-11 H 77 c -2.1,0 -3.9,-1.7 -3.9,-3.9 0,-2.2 1.7,-3.9 3.9,-3.9 h 6.8 z m 0,-11 H 77 c -2.1,0 -3.9,-1.7 -3.9,-3.9 0,-2.2 1.7,-3.9 3.9,-3.9 h 6.8 z"/></g></switch><g id="flowRoot852" aria-label="J" transform="matrix(7.2195356,0,0,7.2195356,-293.2226,-294.56573)" style="font-style:normal;font-variant:normal;font-weight:400;font-stretch:normal;font-size:13.33333302px;line-height:1.25;font-family:Lato;-inkscape-font-specification:Lato;letter-spacing:0;word-spacing:0;fill:#fff;fill-opacity:1;stroke:none;stroke-width:.13851304"><path id="path862" d="m 45.729167,41.577083 h 1.953125 v 6.5625 q 0,1.419271 -0.911459,2.233073 -0.911458,0.813802 -2.265625,0.813802 -1.393229,0 -2.291666,-0.709635 -0.891927,-0.716146 -0.891927,-2.220052 h 1.959635 q 0,0.761718 0.332031,1.061197 0.332031,0.292969 0.891927,0.292969 0.559896,0 0.891927,-0.384114 0.332032,-0.384115 0.332032,-1.08724 z" style="font-style:normal;font-variant:normal;font-weight:700;font-stretch:normal;font-family:Roboto;-inkscape-font-specification:'Roboto Bold';fill:#fff;fill-opacity:1;stroke-width:.02053024"/></g></g></svg>